P3
5 5
255
0 0 0 0 50 50 0 100 100 0 150 150 0 200 200 50 0 50 50 50 100 50 100 150 50 150 200 50 200 250 100 0 100 100 50 150 100 100 200 100 150 250 100 200 44 150 0 150 150 50 200 150 100 250 150 150 44 150 200 94 200 0 200 200 50 250 200 100 44 200 150 94 200 200 144
